<mxfile host="app.diagrams.net" modified="2024-03-13T13:27:37.343Z" agent="Mozilla/5.0 (Windows NT 10.0; Win64; x64) AppleWebKit/537.36 (KHTML, like Gecko) Chrome/122.0.0.0 Safari/537.36" etag="nsDQYv99jAJG2JF5EZ8v" version="24.0.2" type="device">
  <diagram name="Page-1" id="9hr1fdSiySOleVTjyiht">
    <mxGraphModel dx="1859" dy="1615" grid="1" gridSize="10" guides="1" tooltips="1" connect="1" arrows="1" fold="1" page="1" pageScale="1" pageWidth="827" pageHeight="1169" math="0" shadow="0">
      <root>
        <mxCell id="0" />
        <mxCell id="1" parent="0" />
        <mxCell id="Wcu8UqkrtU_ljzzERVZr-2" style="edgeStyle=orthogonalEdgeStyle;rounded=0;orthogonalLoop=1;jettySize=auto;html=1;" parent="1" edge="1">
          <mxGeometry relative="1" as="geometry">
            <mxPoint x="570" y="80" as="targetPoint" />
            <mxPoint x="440" y="80" as="sourcePoint" />
          </mxGeometry>
        </mxCell>
        <mxCell id="Wcu8UqkrtU_ljzzERVZr-4" style="edgeStyle=orthogonalEdgeStyle;rounded=0;orthogonalLoop=1;jettySize=auto;html=1;entryX=0.75;entryY=0;entryDx=0;entryDy=0;" parent="1" target="Wcu8UqkrtU_ljzzERVZr-16" edge="1">
          <mxGeometry relative="1" as="geometry">
            <mxPoint x="245" y="80" as="targetPoint" />
            <mxPoint x="345" y="80" as="sourcePoint" />
          </mxGeometry>
        </mxCell>
        <mxCell id="Wcu8UqkrtU_ljzzERVZr-5" value="NON match term defini sur true&amp;nbsp;&lt;div&gt;Donc toutes les recettes reste&lt;/div&gt;" style="text;html=1;align=center;verticalAlign=middle;resizable=0;points=[];autosize=1;strokeColor=none;fillColor=none;" parent="1" vertex="1">
          <mxGeometry x="150" y="10" width="190" height="40" as="geometry" />
        </mxCell>
        <mxCell id="Wcu8UqkrtU_ljzzERVZr-9" style="edgeStyle=orthogonalEdgeStyle;rounded=0;orthogonalLoop=1;jettySize=auto;html=1;exitX=0.5;exitY=1;exitDx=0;exitDy=0;entryX=0.5;entryY=0;entryDx=0;entryDy=0;" parent="1" source="Wcu8UqkrtU_ljzzERVZr-6" edge="1">
          <mxGeometry relative="1" as="geometry">
            <mxPoint x="400" y="40" as="targetPoint" />
            <Array as="points">
              <mxPoint x="400" />
              <mxPoint x="401" />
            </Array>
          </mxGeometry>
        </mxCell>
        <mxCell id="Wcu8UqkrtU_ljzzERVZr-6" value="A START" style="ellipse;whiteSpace=wrap;html=1;aspect=fixed;" parent="1" vertex="1">
          <mxGeometry x="360" y="-120" width="80" height="80" as="geometry" />
        </mxCell>
        <mxCell id="Wcu8UqkrtU_ljzzERVZr-12" value="B Inferieur a 3" style="ellipse;whiteSpace=wrap;html=1;" parent="1" vertex="1">
          <mxGeometry x="345" y="38" width="120" height="60" as="geometry" />
        </mxCell>
        <mxCell id="Wcu8UqkrtU_ljzzERVZr-15" value="OUI match term defini sur true&amp;nbsp;&lt;div&gt;Donc toutes les recettes reste&lt;/div&gt;" style="text;html=1;align=center;verticalAlign=middle;resizable=0;points=[];autosize=1;strokeColor=none;fillColor=none;" parent="1" vertex="1">
          <mxGeometry x="480" y="30" width="190" height="40" as="geometry" />
        </mxCell>
        <mxCell id="Wcu8UqkrtU_ljzzERVZr-40" style="edgeStyle=orthogonalEdgeStyle;rounded=0;orthogonalLoop=1;jettySize=auto;html=1;" parent="1" source="Wcu8UqkrtU_ljzzERVZr-16" edge="1">
          <mxGeometry relative="1" as="geometry">
            <mxPoint x="130" y="280" as="targetPoint" />
          </mxGeometry>
        </mxCell>
        <mxCell id="Wcu8UqkrtU_ljzzERVZr-16" value="" style="rounded=0;whiteSpace=wrap;html=1;" parent="1" vertex="1">
          <mxGeometry x="130" y="140" width="120" height="60" as="geometry" />
        </mxCell>
        <mxCell id="Wcu8UqkrtU_ljzzERVZr-18" style="edgeStyle=orthogonalEdgeStyle;rounded=0;orthogonalLoop=1;jettySize=auto;html=1;" parent="1" source="Wcu8UqkrtU_ljzzERVZr-17" edge="1">
          <mxGeometry relative="1" as="geometry">
            <mxPoint x="630" y="210" as="targetPoint" />
          </mxGeometry>
        </mxCell>
        <mxCell id="Wcu8UqkrtU_ljzzERVZr-24" style="edgeStyle=orthogonalEdgeStyle;rounded=0;orthogonalLoop=1;jettySize=auto;html=1;entryX=1;entryY=0.5;entryDx=0;entryDy=0;" parent="1" source="Wcu8UqkrtU_ljzzERVZr-17" target="Wcu8UqkrtU_ljzzERVZr-16" edge="1">
          <mxGeometry relative="1" as="geometry">
            <mxPoint x="550" y="170" as="targetPoint" />
            <Array as="points">
              <mxPoint x="550" y="100" />
              <mxPoint x="550" y="150" />
              <mxPoint x="551" y="150" />
              <mxPoint x="551" y="170" />
            </Array>
          </mxGeometry>
        </mxCell>
        <mxCell id="Wcu8UqkrtU_ljzzERVZr-17" value="D NON RECETTE INCLUS&lt;div&gt;&lt;br&gt;&lt;/div&gt;" style="ellipse;whiteSpace=wrap;html=1;" parent="1" vertex="1">
          <mxGeometry x="570" y="70" width="120" height="60" as="geometry" />
        </mxCell>
        <mxCell id="Wcu8UqkrtU_ljzzERVZr-20" style="edgeStyle=orthogonalEdgeStyle;rounded=0;orthogonalLoop=1;jettySize=auto;html=1;" parent="1" source="Wcu8UqkrtU_ljzzERVZr-19" edge="1">
          <mxGeometry relative="1" as="geometry">
            <mxPoint x="630" y="320" as="targetPoint" />
          </mxGeometry>
        </mxCell>
        <mxCell id="Wcu8UqkrtU_ljzzERVZr-19" value="E Description recette inclus ? DANS MATCHTERMS" style="ellipse;whiteSpace=wrap;html=1;" parent="1" vertex="1">
          <mxGeometry x="570" y="210" width="120" height="60" as="geometry" />
        </mxCell>
        <mxCell id="Wcu8UqkrtU_ljzzERVZr-35" value="" style="edgeStyle=orthogonalEdgeStyle;rounded=0;orthogonalLoop=1;jettySize=auto;html=1;" parent="1" source="Wcu8UqkrtU_ljzzERVZr-21" target="Wcu8UqkrtU_ljzzERVZr-34" edge="1">
          <mxGeometry relative="1" as="geometry" />
        </mxCell>
        <mxCell id="Wcu8UqkrtU_ljzzERVZr-21" value="F Ingredient est il inclu ? DANS MATCHTERM" style="ellipse;whiteSpace=wrap;html=1;" parent="1" vertex="1">
          <mxGeometry x="570" y="320" width="120" height="60" as="geometry" />
        </mxCell>
        <mxCell id="Wcu8UqkrtU_ljzzERVZr-22" value="Non on passe au suivant&amp;nbsp;" style="text;html=1;align=center;verticalAlign=middle;resizable=0;points=[];autosize=1;strokeColor=none;fillColor=none;" parent="1" vertex="1">
          <mxGeometry x="630" y="148" width="160" height="30" as="geometry" />
        </mxCell>
        <mxCell id="Wcu8UqkrtU_ljzzERVZr-23" value="Non on passe au suivant&amp;nbsp;" style="text;html=1;align=center;verticalAlign=middle;resizable=0;points=[];autosize=1;strokeColor=none;fillColor=none;" parent="1" vertex="1">
          <mxGeometry x="650" y="280" width="160" height="30" as="geometry" />
        </mxCell>
        <mxCell id="Wcu8UqkrtU_ljzzERVZr-25" value="OUi on regarde les tags" style="text;html=1;align=center;verticalAlign=middle;resizable=0;points=[];autosize=1;strokeColor=none;fillColor=none;" parent="1" vertex="1">
          <mxGeometry x="250" y="130" width="150" height="30" as="geometry" />
        </mxCell>
        <mxCell id="Wcu8UqkrtU_ljzzERVZr-26" style="edgeStyle=orthogonalEdgeStyle;rounded=0;orthogonalLoop=1;jettySize=auto;html=1;entryX=0.873;entryY=1.027;entryDx=0;entryDy=0;entryPerimeter=0;" parent="1" source="Wcu8UqkrtU_ljzzERVZr-19" target="Wcu8UqkrtU_ljzzERVZr-16" edge="1">
          <mxGeometry relative="1" as="geometry" />
        </mxCell>
        <mxCell id="Wcu8UqkrtU_ljzzERVZr-27" style="edgeStyle=orthogonalEdgeStyle;rounded=0;orthogonalLoop=1;jettySize=auto;html=1;entryX=0.7;entryY=1.08;entryDx=0;entryDy=0;entryPerimeter=0;" parent="1" source="Wcu8UqkrtU_ljzzERVZr-21" target="Wcu8UqkrtU_ljzzERVZr-16" edge="1">
          <mxGeometry relative="1" as="geometry" />
        </mxCell>
        <mxCell id="Wcu8UqkrtU_ljzzERVZr-28" value="OUi on regarde les tags" style="text;html=1;align=center;verticalAlign=middle;resizable=0;points=[];autosize=1;strokeColor=none;fillColor=none;" parent="1" vertex="1">
          <mxGeometry x="240" y="200" width="150" height="30" as="geometry" />
        </mxCell>
        <mxCell id="Wcu8UqkrtU_ljzzERVZr-29" value="OUi on regarde les tags" style="text;html=1;align=center;verticalAlign=middle;resizable=0;points=[];autosize=1;strokeColor=none;fillColor=none;" parent="1" vertex="1">
          <mxGeometry x="230" y="310" width="150" height="30" as="geometry" />
        </mxCell>
        <mxCell id="Wcu8UqkrtU_ljzzERVZr-30" value="matchessearchterm TRUE&amp;nbsp;" style="text;html=1;align=center;verticalAlign=middle;resizable=0;points=[];autosize=1;strokeColor=none;fillColor=#FFAE78;" parent="1" vertex="1">
          <mxGeometry x="390" y="130" width="170" height="30" as="geometry" />
        </mxCell>
        <mxCell id="Wcu8UqkrtU_ljzzERVZr-91" style="edgeStyle=orthogonalEdgeStyle;rounded=0;orthogonalLoop=1;jettySize=auto;html=1;entryX=1;entryY=1;entryDx=0;entryDy=0;" parent="1" source="Wcu8UqkrtU_ljzzERVZr-34" target="Wcu8UqkrtU_ljzzERVZr-41" edge="1">
          <mxGeometry relative="1" as="geometry" />
        </mxCell>
        <mxCell id="Wcu8UqkrtU_ljzzERVZr-34" value="G RECHECHE INFRUTUEUS" style="whiteSpace=wrap;html=1;rounded=0;" parent="1" vertex="1">
          <mxGeometry x="490" y="460" width="120" height="60" as="geometry" />
        </mxCell>
        <mxCell id="Wcu8UqkrtU_ljzzERVZr-36" value="matchessearchterm FALSE&lt;div&gt;&lt;br&gt;&lt;/div&gt;" style="text;html=1;align=center;verticalAlign=middle;resizable=0;points=[];autosize=1;strokeColor=none;fillColor=#FFAE78;" parent="1" vertex="1">
          <mxGeometry x="645" y="460" width="170" height="40" as="geometry" />
        </mxCell>
        <mxCell id="Wcu8UqkrtU_ljzzERVZr-37" value="matchessearchterm TRUE&amp;nbsp;" style="text;html=1;align=center;verticalAlign=middle;resizable=0;points=[];autosize=1;strokeColor=none;fillColor=#FFAE78;" parent="1" vertex="1">
          <mxGeometry x="390" y="200" width="170" height="30" as="geometry" />
        </mxCell>
        <mxCell id="Wcu8UqkrtU_ljzzERVZr-38" value="matchessearchterm TRUE&amp;nbsp;" style="text;html=1;align=center;verticalAlign=middle;resizable=0;points=[];autosize=1;strokeColor=none;fillColor=#FFAE78;" parent="1" vertex="1">
          <mxGeometry x="390" y="305" width="170" height="30" as="geometry" />
        </mxCell>
        <mxCell id="Wcu8UqkrtU_ljzzERVZr-39" value="C matchessearchterm TRUE&amp;nbsp;" style="text;html=1;align=center;verticalAlign=middle;resizable=0;points=[];autosize=1;strokeColor=none;fillColor=default;" parent="1" vertex="1">
          <mxGeometry x="130" y="160" width="180" height="30" as="geometry" />
        </mxCell>
        <mxCell id="Wcu8UqkrtU_ljzzERVZr-45" style="edgeStyle=orthogonalEdgeStyle;rounded=0;orthogonalLoop=1;jettySize=auto;html=1;entryX=0.932;entryY=-0.067;entryDx=0;entryDy=0;entryPerimeter=0;" parent="1" source="Wcu8UqkrtU_ljzzERVZr-41" target="Wcu8UqkrtU_ljzzERVZr-46" edge="1">
          <mxGeometry relative="1" as="geometry">
            <mxPoint x="50" y="380" as="targetPoint" />
            <Array as="points">
              <mxPoint x="50" y="310" />
              <mxPoint x="50" y="360" />
              <mxPoint x="52" y="360" />
              <mxPoint x="52" y="376" />
            </Array>
          </mxGeometry>
        </mxCell>
        <mxCell id="Wcu8UqkrtU_ljzzERVZr-50" style="edgeStyle=orthogonalEdgeStyle;rounded=0;orthogonalLoop=1;jettySize=auto;html=1;" parent="1" source="Wcu8UqkrtU_ljzzERVZr-41" target="Wcu8UqkrtU_ljzzERVZr-49" edge="1">
          <mxGeometry relative="1" as="geometry" />
        </mxCell>
        <mxCell id="Wcu8UqkrtU_ljzzERVZr-41" value="H Tag INGREDIENT present dans recette ?" style="ellipse;whiteSpace=wrap;html=1;" parent="1" vertex="1">
          <mxGeometry x="70" y="280" width="120" height="60" as="geometry" />
        </mxCell>
        <mxCell id="Wcu8UqkrtU_ljzzERVZr-56" style="edgeStyle=orthogonalEdgeStyle;rounded=0;orthogonalLoop=1;jettySize=auto;html=1;exitX=0.5;exitY=1;exitDx=0;exitDy=0;entryX=0;entryY=0.25;entryDx=0;entryDy=0;" parent="1" source="Wcu8UqkrtU_ljzzERVZr-46" target="Wcu8UqkrtU_ljzzERVZr-52" edge="1">
          <mxGeometry relative="1" as="geometry" />
        </mxCell>
        <mxCell id="Wcu8UqkrtU_ljzzERVZr-46" value="J ININGREDIENTMATCTH FALSE" style="rounded=0;whiteSpace=wrap;html=1;" parent="1" vertex="1">
          <mxGeometry x="-170" y="380" width="120" height="60" as="geometry" />
        </mxCell>
        <mxCell id="Wcu8UqkrtU_ljzzERVZr-48" value="Si pas d&#39;ingredient alors false" style="text;html=1;align=center;verticalAlign=middle;resizable=0;points=[];autosize=1;strokeColor=none;fillColor=none;" parent="1" vertex="1">
          <mxGeometry x="-130" y="335" width="180" height="30" as="geometry" />
        </mxCell>
        <mxCell id="Wcu8UqkrtU_ljzzERVZr-51" style="edgeStyle=orthogonalEdgeStyle;rounded=0;orthogonalLoop=1;jettySize=auto;html=1;" parent="1" source="Wcu8UqkrtU_ljzzERVZr-49" edge="1">
          <mxGeometry relative="1" as="geometry">
            <mxPoint x="70" y="530" as="targetPoint" />
          </mxGeometry>
        </mxCell>
        <mxCell id="Wcu8UqkrtU_ljzzERVZr-49" value="I Tag INGREDIENTmatch&amp;nbsp;&lt;div&gt;TRUE&lt;/div&gt;" style="rounded=0;whiteSpace=wrap;html=1;" parent="1" vertex="1">
          <mxGeometry x="10" y="410" width="120" height="60" as="geometry" />
        </mxCell>
        <mxCell id="Wcu8UqkrtU_ljzzERVZr-53" style="edgeStyle=orthogonalEdgeStyle;rounded=0;orthogonalLoop=1;jettySize=auto;html=1;" parent="1" source="Wcu8UqkrtU_ljzzERVZr-52" edge="1">
          <mxGeometry relative="1" as="geometry">
            <mxPoint x="70" y="630" as="targetPoint" />
          </mxGeometry>
        </mxCell>
        <mxCell id="Wcu8UqkrtU_ljzzERVZr-58" style="edgeStyle=orthogonalEdgeStyle;rounded=0;orthogonalLoop=1;jettySize=auto;html=1;" parent="1" source="Wcu8UqkrtU_ljzzERVZr-52" edge="1">
          <mxGeometry relative="1" as="geometry">
            <mxPoint x="-100" y="580" as="targetPoint" />
          </mxGeometry>
        </mxCell>
        <mxCell id="Wcu8UqkrtU_ljzzERVZr-52" value="K L&#39;appareil de la recette correspond-il à au moins un tag d&#39;appareil actif" style="ellipse;whiteSpace=wrap;html=1;" parent="1" vertex="1">
          <mxGeometry x="10" y="510" width="140" height="80" as="geometry" />
        </mxCell>
        <mxCell id="Wcu8UqkrtU_ljzzERVZr-57" style="edgeStyle=orthogonalEdgeStyle;rounded=0;orthogonalLoop=1;jettySize=auto;html=1;" parent="1" source="Wcu8UqkrtU_ljzzERVZr-55" edge="1">
          <mxGeometry relative="1" as="geometry">
            <mxPoint x="70" y="770" as="targetPoint" />
          </mxGeometry>
        </mxCell>
        <mxCell id="Wcu8UqkrtU_ljzzERVZr-55" value="L Tag appliancemarch True" style="rounded=0;whiteSpace=wrap;html=1;" parent="1" vertex="1">
          <mxGeometry x="10" y="630" width="120" height="60" as="geometry" />
        </mxCell>
        <mxCell id="Wcu8UqkrtU_ljzzERVZr-67" style="edgeStyle=orthogonalEdgeStyle;rounded=0;orthogonalLoop=1;jettySize=auto;html=1;exitX=0.5;exitY=1;exitDx=0;exitDy=0;entryX=0.025;entryY=0.207;entryDx=0;entryDy=0;entryPerimeter=0;" parent="1" source="Wcu8UqkrtU_ljzzERVZr-59" target="Wcu8UqkrtU_ljzzERVZr-70" edge="1">
          <mxGeometry relative="1" as="geometry">
            <mxPoint x="-155" y="750" as="targetPoint" />
          </mxGeometry>
        </mxCell>
        <mxCell id="Wcu8UqkrtU_ljzzERVZr-59" value="M APPLIANCE MATCH = FALSE" style="ellipse;whiteSpace=wrap;html=1;" parent="1" vertex="1">
          <mxGeometry x="-215" y="555" width="120" height="60" as="geometry" />
        </mxCell>
        <mxCell id="Wcu8UqkrtU_ljzzERVZr-61" value="oui au moins un" style="text;html=1;align=center;verticalAlign=middle;resizable=0;points=[];autosize=1;strokeColor=none;fillColor=none;" parent="1" vertex="1">
          <mxGeometry x="80" y="590" width="110" height="30" as="geometry" />
        </mxCell>
        <mxCell id="Wcu8UqkrtU_ljzzERVZr-62" value="NON aucun" style="text;html=1;align=center;verticalAlign=middle;resizable=0;points=[];autosize=1;strokeColor=none;fillColor=none;" parent="1" vertex="1">
          <mxGeometry x="-145" y="520" width="90" height="30" as="geometry" />
        </mxCell>
        <mxCell id="Wcu8UqkrtU_ljzzERVZr-72" style="edgeStyle=orthogonalEdgeStyle;rounded=0;orthogonalLoop=1;jettySize=auto;html=1;" parent="1" source="Wcu8UqkrtU_ljzzERVZr-70" edge="1">
          <mxGeometry relative="1" as="geometry">
            <mxPoint x="60" y="890" as="targetPoint" />
          </mxGeometry>
        </mxCell>
        <mxCell id="Wcu8UqkrtU_ljzzERVZr-74" style="edgeStyle=orthogonalEdgeStyle;rounded=0;orthogonalLoop=1;jettySize=auto;html=1;exitX=0;exitY=1;exitDx=0;exitDy=0;" parent="1" source="Wcu8UqkrtU_ljzzERVZr-70" edge="1">
          <mxGeometry relative="1" as="geometry">
            <mxPoint x="-140" y="870" as="targetPoint" />
          </mxGeometry>
        </mxCell>
        <mxCell id="Wcu8UqkrtU_ljzzERVZr-70" value="N Tag ustensil present dans recette ?" style="ellipse;whiteSpace=wrap;html=1;" parent="1" vertex="1">
          <mxGeometry y="770" width="120" height="60" as="geometry" />
        </mxCell>
        <mxCell id="Wcu8UqkrtU_ljzzERVZr-78" style="edgeStyle=orthogonalEdgeStyle;rounded=0;orthogonalLoop=1;jettySize=auto;html=1;exitX=0.5;exitY=1;exitDx=0;exitDy=0;" parent="1" source="Wcu8UqkrtU_ljzzERVZr-73" edge="1">
          <mxGeometry relative="1" as="geometry">
            <mxPoint x="60" y="1040" as="targetPoint" />
          </mxGeometry>
        </mxCell>
        <mxCell id="Wcu8UqkrtU_ljzzERVZr-73" value="O USTENSIL MATCH TRUE" style="rounded=0;whiteSpace=wrap;html=1;" parent="1" vertex="1">
          <mxGeometry y="890" width="120" height="60" as="geometry" />
        </mxCell>
        <mxCell id="Wcu8UqkrtU_ljzzERVZr-75" value="OUI" style="text;html=1;align=center;verticalAlign=middle;resizable=0;points=[];autosize=1;strokeColor=none;fillColor=none;" parent="1" vertex="1">
          <mxGeometry x="70" y="848" width="40" height="30" as="geometry" />
        </mxCell>
        <mxCell id="Wcu8UqkrtU_ljzzERVZr-76" value="NON" style="text;html=1;align=center;verticalAlign=middle;resizable=0;points=[];autosize=1;strokeColor=none;fillColor=none;" parent="1" vertex="1">
          <mxGeometry x="-100" y="830" width="50" height="30" as="geometry" />
        </mxCell>
        <mxCell id="Wcu8UqkrtU_ljzzERVZr-92" style="edgeStyle=orthogonalEdgeStyle;rounded=0;orthogonalLoop=1;jettySize=auto;html=1;exitX=0.5;exitY=1;exitDx=0;exitDy=0;" parent="1" source="Wcu8UqkrtU_ljzzERVZr-77" target="Wcu8UqkrtU_ljzzERVZr-79" edge="1">
          <mxGeometry relative="1" as="geometry" />
        </mxCell>
        <mxCell id="Wcu8UqkrtU_ljzzERVZr-77" value="P USTENSIL MATCH FALSE" style="rounded=0;whiteSpace=wrap;html=1;" parent="1" vertex="1">
          <mxGeometry x="-190" y="870" width="120" height="60" as="geometry" />
        </mxCell>
        <mxCell id="Wcu8UqkrtU_ljzzERVZr-81" style="edgeStyle=orthogonalEdgeStyle;rounded=0;orthogonalLoop=1;jettySize=auto;html=1;exitX=0.939;exitY=0.253;exitDx=0;exitDy=0;exitPerimeter=0;entryX=0;entryY=0.5;entryDx=0;entryDy=0;" parent="1" source="Wcu8UqkrtU_ljzzERVZr-79" target="Wcu8UqkrtU_ljzzERVZr-82" edge="1">
          <mxGeometry relative="1" as="geometry">
            <mxPoint x="430" y="1070" as="targetPoint" />
            <mxPoint x="270" y="1050" as="sourcePoint" />
          </mxGeometry>
        </mxCell>
        <mxCell id="Wcu8UqkrtU_ljzzERVZr-85" style="edgeStyle=orthogonalEdgeStyle;rounded=0;orthogonalLoop=1;jettySize=auto;html=1;exitX=1;exitY=0.5;exitDx=0;exitDy=0;" parent="1" source="Wcu8UqkrtU_ljzzERVZr-79" edge="1">
          <mxGeometry relative="1" as="geometry">
            <mxPoint x="410" y="1120" as="targetPoint" />
          </mxGeometry>
        </mxCell>
        <mxCell id="Wcu8UqkrtU_ljzzERVZr-79" value="Q matchesSearchTerm, ingredientMatch, applianceMatch et utensilMatch TRUE ?" style="ellipse;whiteSpace=wrap;html=1;" parent="1" vertex="1">
          <mxGeometry x="-110" y="1040" width="290" height="60" as="geometry" />
        </mxCell>
        <mxCell id="Wcu8UqkrtU_ljzzERVZr-90" style="edgeStyle=orthogonalEdgeStyle;rounded=0;orthogonalLoop=1;jettySize=auto;html=1;" parent="1" source="Wcu8UqkrtU_ljzzERVZr-82" target="Wcu8UqkrtU_ljzzERVZr-89" edge="1">
          <mxGeometry relative="1" as="geometry" />
        </mxCell>
        <mxCell id="Wcu8UqkrtU_ljzzERVZr-82" value="R INCLURE LA RECETTE FILTRE" style="rounded=0;whiteSpace=wrap;html=1;" parent="1" vertex="1">
          <mxGeometry x="430" y="1000" width="120" height="60" as="geometry" />
        </mxCell>
        <mxCell id="Wcu8UqkrtU_ljzzERVZr-84" value="OUI" style="text;html=1;align=center;verticalAlign=middle;resizable=0;points=[];autosize=1;strokeColor=none;fillColor=none;" parent="1" vertex="1">
          <mxGeometry x="270" y="1008" width="40" height="30" as="geometry" />
        </mxCell>
        <mxCell id="Wcu8UqkrtU_ljzzERVZr-86" value="NON" style="text;html=1;align=center;verticalAlign=middle;resizable=0;points=[];autosize=1;strokeColor=none;fillColor=none;" parent="1" vertex="1">
          <mxGeometry x="275" y="1068" width="50" height="30" as="geometry" />
        </mxCell>
        <mxCell id="Wcu8UqkrtU_ljzzERVZr-88" style="edgeStyle=orthogonalEdgeStyle;rounded=0;orthogonalLoop=1;jettySize=auto;html=1;" parent="1" source="Wcu8UqkrtU_ljzzERVZr-87" edge="1">
          <mxGeometry relative="1" as="geometry">
            <mxPoint x="680" y="1000" as="targetPoint" />
          </mxGeometry>
        </mxCell>
        <mxCell id="Wcu8UqkrtU_ljzzERVZr-87" value="S EXLURE LA RECETTE FILTRE" style="rounded=0;whiteSpace=wrap;html=1;" parent="1" vertex="1">
          <mxGeometry x="400" y="1120" width="120" height="60" as="geometry" />
        </mxCell>
        <mxCell id="Wcu8UqkrtU_ljzzERVZr-89" value="FIN" style="ellipse;whiteSpace=wrap;html=1;aspect=fixed;" parent="1" vertex="1">
          <mxGeometry x="640" y="920" width="80" height="80" as="geometry" />
        </mxCell>
      </root>
    </mxGraphModel>
  </diagram>
</mxfile>
